<svg t="1775638605906" class="icon" viewBox="0 0 1024 1024" version="1.1" xmlns="http://www.w3.org/2000/svg" p-id="2574" width="200" height="200"><path d="M512 734.420531a208.770201 208.770201 0 0 1-212.492701-204.272181A208.615097 208.615097 0 0 1 512 326.031274c117.103642 0 212.492701 91.511455 212.492701 204.117076A208.770201 208.770201 0 0 1 512 734.420531zM512 419.093771a114.932184 114.932184 0 0 0-116.793434 111.674996 116.948538 116.948538 0 0 0 233.586868 0A114.466871 114.466871 0 0 0 512 419.093771z" fill="#4C5C71" p-id="2575"></path><path d="M512 1024a535.109357 535.109357 0 0 1-101.903434-9.771562L382.332921 1008.489584l-8.530729-26.212603a169.528848 169.528848 0 0 0-163.014473-115.242392 180.541244 180.541244 0 0 0-37.535207 4.032708l-27.453437 5.738854-18.612499-20.163541a481.908629 481.908629 0 0 1-102.523851-170.614578L15.666684 661.211367l19.077811-20.163541A159.291974 159.291974 0 0 0 34.8996 419.093771L15.666684 399.240438l8.996041-25.902395a477.255505 477.255505 0 0 1 102.678955-170.614578l18.457395-20.16354 27.453437 5.738853a180.541244 180.541244 0 0 0 37.535207 4.032709A169.373744 169.373744 0 0 0 373.802192 77.864616l8.530729-26.0575L410.096566 46.843783a561.942377 561.942377 0 0 1 68.711143-8.685833H480.979168a45.445519 45.445519 0 0 1 46.531248 42.188332v3.257188a48.857811 48.857811 0 0 1-46.531248 46.531248c-8.685833 0-17.681874 1.551042-26.677916 2.791875a261.505616 261.505616 0 0 1-110.589267 118.344475 276.55072 276.55072 0 0 1-133.234475 34.27802c-9.461354 0-18.922708 0-28.384061-1.551042A392.258424 392.258424 0 0 0 124.239597 379.387105a249.7177 249.7177 0 0 1 0 301.677594 398.152382 398.152382 0 0 0 57.698748 95.544164C191.554803 775.833342 201.791677 775.833342 210.632614 775.833342a275.930303 275.930303 0 0 1 133.079371 34.278019 260.574991 260.574991 0 0 1 110.589267 118.344476A453.679672 453.679672 0 0 0 512 930.937503a444.063214 444.063214 0 0 0 57.38854-3.877604 263.677074 263.677074 0 0 1 110.589267-118.344475A275.930303 275.930303 0 0 1 813.52249 775.833342a250.648325 250.648325 0 0 1 28.384061 1.551041A400.323841 400.323841 0 0 0 899.760403 681.219803a247.236033 247.236033 0 0 1-11.477707-285.701865 44.514894 44.514894 0 0 1 36.91479-19.543124 43.429165 43.429165 0 0 1 16.596145 3.257187 45.600623 45.600623 0 0 1 27.298333 27.763645 53.045623 53.045623 0 0 1-3.877604 44.35979 158.206245 158.206245 0 0 0 24.041145 189.69239l19.077811 20.163541-8.996041 26.057499a478.96165 478.96165 0 0 1-102.678955 170.614577l-18.457395 20.318645-27.453437-6.049062a186.124994 186.124994 0 0 0-37.224998-3.877604 176.818744 176.818744 0 0 0-85.617497 22.024791 164.410411 164.410411 0 0 0-77.552081 93.062497L641.667079 1008.489584l-27.763645 5.273541a541.468627 541.468627 0 0 1-97.405413 9.771563H512z" fill="#4C5C71" p-id="2576"></path><path d="M766.991241 17.063784a26.83302 26.83302 0 0 1 33.967812-15.510416 26.367707 26.367707 0 0 1 15.510416 15.510416l40.63729 105.625934a26.367707 26.367707 0 0 0 15.510416 15.510416l110.123955 39.086249a25.126874 25.126874 0 0 1 15.510416 32.571874 26.367707 26.367707 0 0 1-15.510416 15.510416L873.082488 263.989609a25.592187 25.592187 0 0 0-15.510416 15.510416l-40.637291 105.625934a26.988124 26.988124 0 0 1-33.967811 15.510416 26.057499 26.057499 0 0 1-15.510416-15.510416L726.198847 279.500025a25.592187 25.592187 0 0 0-15.510416-15.510416l-110.123955-39.086248a25.281978 25.281978 0 0 1-15.510416-32.571874 25.592187 25.592187 0 0 1 15.510416-15.510416l110.123955-39.086249a25.902395 25.902395 0 0 0 15.510416-15.510416z" fill="#4C5C71" p-id="2577"></path></svg>